#!OML:ASF I:\Random Stuff\random\construction\7_22_03\Session 2\subj1.ASF
:FULLY-SPECIFIED
:DEGREES
443
root 0.325598 17.7544 -0.366165 -3.40283 71.6867 -9.78705
lowerback -0.409094 0.750458 1.72338
upperback -3.18576 1.12763 2.11589
thorax -3.0535 0.569143 1.18276
lowerneck -24.0125 0.203225 3.0445
upperneck 25.3339 -0.921939 0.557953
head 12.3761 0.0317125 -0.443753
rclavicle -1.27719e-014 7.95139e-015
rhumerus 14.9596 24.8034 -73.8971
rradius 113.589
rwrist -24.1612
rhand -32.4292 21.3285
rfingers 7.12502
rthumb -5.66314 -8.57584
lclavicle -1.27719e-014 7.95139e-015
lhumerus -33.8941 -26.2969 102.865
lradius 56.8906
lwrist 35.9534
lhand -19.3977 65.7779
lfingers 7.12502
lthumb 6.92126 -95.6448
rfemur 0.57037 7.28764 21.9281
rtibia 5.56597e-015
rfoot -2.8104 -14.6996
rtoes -17.7751
lfemur -8.71962 -18.4675 -12.9487
ltibia 18.8383
lfoot -14.9889 17.6673
ltoes -28.7218
444
root 0.322106 17.7526 -0.373091 -2.74038 71.785 -9.08585
lowerback -0.441943 0.770708 1.57226
upperback -3.16437 1.14644 2.0145
thorax -3.01338 0.580371 1.1632
lowerneck -23.8717 0.0341748 2.81041
upperneck 25.2594 -1.14066 0.810435
head 12.3195 -0.0543998 -0.346109
rclavicle -2.75193e-014 -4.77083e-015
rhumerus 14.0793 25.1092 -74.2573
rradius 114.463
rwrist -23.4648
rhand -32.5126 22.6707
rfingers 7.12502
rthumb -5.74365 -7.23147
lclavicle -2.75193e-014 -4.77083e-015
lhumerus -34.0717 -26.2443 103.035
lradius 55.496
lwrist 33.0581
lhand -18.9619 65.7241
lfingers 7.12502
lthumb 7.34197 -95.5768
rfemur 0.575671 7.19885 21.6622
rtibia -6.36111e-015
rfoot -2.77142 -14.7312
rtoes -18.6392
lfemur -8.68733 -18.6971 -13.2355
ltibia 18.765
lfoot -14.9213 17.8215
ltoes -28.7917
445
root 0.318346 17.7514 -0.373694 -2.33832 71.8734 -8.66156
lowerback -0.471489 0.8028 1.436
upperback -3.15213 1.18395 1.96088
thorax -2.98571 0.601572 1.18401
lowerneck -23.7608 -0.0669235 2.61207
upperneck 25.1694 -1.26905 1.03298
head 12.2643 -0.10176 -0.250366
rclavicle 1.73315e-014 3.18055e-015
rhumerus 13.0328 25.4077 -74.6929
rradius 115.172
rwrist -22.2393
rhand -32.7184 23.6989
rfingers 7.12502
rthumb -5.94233 -6.19781
lclavicle 1.73315e-014 3.18055e-015
lhumerus -34.2929 -26.074 103.183
lradius 54.1472
lwrist 30.3557
lhand -18.5819 65.7293
lfingers 7.12502
lthumb 7.70867 -95.5688
rfemur 0.588487 7.11534 21.5052
rtibia -1.03368e-014
rfoot -2.8385 -14.7696
rtoes -18.5345
lfemur -8.67533 -18.9432 -13.4022
ltibia 18.7171
lfoot -14.8563 18.0074
ltoes -29.1959
446
root 0.313552 17.75 -0.365434 -2.53948 71.9435 -8.83645
lowerback -0.427331 0.844199 1.41048
upperback -3.16815 1.24092 1.96405
thorax -3.0284 0.630713 1.19953
lowerneck -23.7481 -0.109514 2.48688
upperneck 25.1981 -1.33348 1.21033
head 12.2754 -0.116705 -0.173058
rclavicle -6.08778e-015 1.82882e-014
rhumerus 11.8563 25.6492 -75.2226
rradius 115.781
rwrist -21.2323
rhand -32.752 24.4082
rfingers 7.12502
rthumb -5.97475 -5.48755
lclavicle -6.08778e-015 1.82882e-014
lhumerus -34.6043 -25.7095 103.315
lradius 52.815
lwrist 28.3608
lhand -20.2583 63.1567
lfingers 7.12502
lthumb 6.09046 -93.0491
rfemur 0.649609 7.04393 21.5876
rtibia 2.38542e-015
rfoot -2.98477 -14.7765
rtoes -17.7254
lfemur -8.67351 -19.092 -13.3228
ltibia 18.7433
lfoot -14.8851 18.0865
ltoes -29.2479
447
root 0.308624 17.7456 -0.352064 -3.26078 71.9982 -9.50301
lowerback -0.365733 0.856741 1.4642
upperback -3.16017 1.2623 2.02836
thorax -3.05566 0.641129 1.23422
lowerneck -23.7726 -0.141406 2.51669
upperneck 25.248 -1.37982 1.17179
head 12.299 -0.138258 -0.2006
rclavicle -3.14018e-014 -6.75868e-015
rhumerus 10.7232 25.9524 -75.7634
rradius 116.423
rwrist -20.7414
rhand -32.586 25.0037
rfingers 7.12502
rthumb -5.81448 -4.89649
lclavicle -3.14018e-014 -6.75868e-015
lhumerus -34.8274 -25.1213 103.334
lradius 51.4208
lwrist 27.1352
lhand -21.3111 61.5113
lfingers 7.12502
lthumb 5.07397 -91.4306
rfemur 0.770863 6.98049 21.8689
rtibia 7.95139e-016
rfoot -3.10531 -14.7872
rtoes -17.292
lfemur -8.65268 -19.1326 -13.0616
ltibia 18.832
lfoot -14.9915 18.0333
ltoes -29.0699
448
root 0.307124 17.7391 -0.343393 -3.8657 72.0186 -10.0198
lowerback -0.337598 0.856568 1.52797
upperback -3.12283 1.26418 2.07958
thorax -3.03293 0.641259 1.25095
lowerneck -23.8592 -0.118292 2.52144
upperneck 25.302 -1.35967 1.19385
head 12.3378 -0.124225 -0.189608
rclavicle 7.85945e-014 9.14409e-015
rhumerus 9.64876 26.3598 -76.2912
rradius 117.007
rwrist -20.1287
rhand -32.5366 25.776
rfingers 7.12502
rthumb -5.76684 -4.12551
lclavicle 7.85945e-014 9.14409e-015
lhumerus -34.988 -24.4601 103.214
lradius 50.1004
lwrist 26.3336
lhand -21.0686 60.9738
lfingers 7.12502
lthumb 5.30811 -90.8874
rfemur 0.912235 6.94926 22.0911
rtibia -9.54166e-015
rfoot -3.12149 -14.7905
rtoes -17.4578
lfemur -8.58238 -19.2201 -12.893
ltibia 18.9402
lfoot -15.1431 18.0285
ltoes -28.9448
449
root 0.308848 17.7345 -0.33967 -4.0204 72.0121 -10.0833
lowerback -0.342496 0.867729 1.53357
upperback -3.09205 1.27796 2.0877
thorax -2.99857 0.648066 1.25614
lowerneck -24.0076 -0.0210192 2.3794
upperneck 25.3131 -1.25612 1.46865
head 12.3761 -0.0531794 -0.0434225
rclavicle -6.02566e-016 1.55052e-014
rhumerus 8.60779 26.7392 -76.8143
rradius 117.519
rwrist -19.2467
rhand -32.422 26.2737
rfingers 7.12502
rthumb -5.65618 -3.63078
lclavicle -6.02566e-016 1.55052e-014
lhumerus -35.1891 -23.7783 103.054
lradius 48.8835
lwrist 25.8423
lhand -20.3766 60.7884
lfingers 7.12502
lthumb 5.97627 -90.6842
rfemur 1.02275 6.9518 22.1363
rtibia 2.38542e-015
rfoot -3.08698 -14.7679
rtoes -17.5832
lfemur -8.48231 -19.3679 -12.908
ltibia 19.0178
lfoot -15.2923 18.1142
ltoes -28.5995
450
root 0.306958 17.7339 -0.335598 -3.93087 72.054 -9.94947
lowerback -0.363578 0.866191 1.44909
upperback -3.07612 1.27355 2.09477
thorax -2.97207 0.648142 1.31124
lowerneck -22.9349 0.385388 0.906835
upperneck 24.1163 -0.87848 4.27907
head 11.7316 0.331866 1.31184
rclavicle -4.35214e-014 9.14409e-015
rhumerus 7.68241 27.0876 -77.239
rradius 117.906
rwrist -18.5853
rhand -32.2394 27.0126
rfingers 7.12502
rthumb -5.47992 -2.89654
lclavicle -4.35214e-014 9.14409e-015
lhumerus -35.4471 -23.2892 103.014
lradius 47.6541
lwrist 26.4077
lhand -20.7992 60.1315
lfingers 7.12502
lthumb 5.56818 -90.0383
rfemur 1.06754 6.91199 22.1035
rtibia -7.95139e-016
rfoot -3.08283 -14.7558
rtoes -17.5287
lfemur -8.42302 -19.5296 -12.9617
ltibia 18.9862
lfoot -15.3284 18.1949
ltoes -28.4377
451
root 0.301544 17.7353 -0.330861 -3.91115 72.1215 -9.8846
lowerback -0.368412 0.859067 1.37452
upperback -3.03547 1.2617 2.11491
thorax -2.92918 0.644308 1.37433
lowerneck -21.7018 0.775919 -0.35424
upperneck 22.5019 -0.414744 6.57431
head 10.8877 0.685093 2.39591
rclavicle 3.11284e-014 -9.54166e-015
rhumerus 6.93751 27.3972 -77.5322
rradius 118.279
rwrist -18.3592
rhand -31.9258 28.0379
rfingers 7.12502
rthumb -5.17704 -1.87885
lclavicle 3.11284e-014 -9.54166e-015
lhumerus -35.537 -22.6037 102.727
lradius 46.4822
lwrist 26.0181
lhand -19.0813 60.7226
lfingers 7.12502
lthumb 7.22667 -90.5793
rfemur 1.11692 6.84484 22.0886
rtibia 7.95139e-016
rfoot -3.20104 -14.7506
rtoes -16.4989
lfemur -8.33399 -19.7218 -12.9798
ltibia 18.852
lfoot -15.2293 18.3277
ltoes -28.524
452
root 0.295382 17.7381 -0.329763 -3.85781 72.1835 -9.77527
lowerback -0.371749 0.843779 1.34796
upperback -2.97204 1.23815 2.12052
thorax -2.86206 0.632969 1.39594
lowerneck -21.7699 0.790158 -0.418794
upperneck 22.763 -0.345968 6.42933
head 10.993 0.697976 2.37224
rclavicle 8.23093e-015 1.86858e-014
rhumerus 6.35792 27.6846 -77.7608
rradius 118.792
rwrist -18.1184
rhand -31.6003 28.2759
rfingers 7.12502
rthumb -4.86278 -1.64829
lclavicle 8.23093e-015 1.86858e-014
lhumerus -35.6632 -21.9729 102.472
lradius 45.2646
lwrist 26.3034
lhand -18.2631 60.7822
lfingers 7.12502
lthumb 8.01644 -90.6101
rfemur 1.17039 6.78226 22.0322
rtibia -7.15625e-015
rfoot -3.43885 -14.7239
rtoes -14.4699
lfemur -8.23683 -19.9509 -13.0284
ltibia 18.7332
lfoot -15.157 18.5027
ltoes -28.4233
453
root 0.288063 17.7377 -0.333735 -3.48559 72.2493 -9.37573
lowerback -0.364724 0.813877 1.27133
upperback -2.94171 1.19457 2.08719
thorax -2.8347 0.61215 1.40558
lowerneck -21.9169 0.808477 -0.337229
upperneck 22.8199 -0.294445 6.19828
head 11.0388 0.700266 2.28514
rclavicle 4.94322e-014 -3.97569e-015
rhumerus 5.84944 28.0189 -77.9697
rradius 119.259
rwrist -17.659
rhand -31.5452 28.2599
rfingers 7.12502
rthumb -4.80963 -1.66549
lclavicle 4.94322e-014 -3.97569e-015
lhumerus -35.8186 -21.5184 102.304
lradius 43.9857
lwrist 27.2702
lhand -18.9075 60.256
lfingers 7.12502
lthumb 7.39442 -90.1068
rfemur 1.15556 6.7226 21.8786
rtibia 1.03368e-014
rfoot -3.40822 -14.7114
rtoes -14.9084
lfemur -8.20836 -20.2157 -13.1797
ltibia 18.6581
lfoot -15.1481 18.6877
ltoes -28.2334
454
root 0.280408 17.7312 -0.330362 -3.47802 72.2654 -9.3116
lowerback -0.275335 0.812067 1.2118
upperback -2.9356 1.19301 2.08643
thorax -2.87987 0.61249 1.43687
lowerneck -22.0011 0.818705 -0.251847
upperneck 22.9334 -0.260472 5.98927
head 11.0948 0.698743 2.20338
rclavicle -6.33937e-015 1.98785e-015
rhumerus 5.35373 28.2606 -78.1566
rradius 119.649
rwrist -17.3718
rhand -31.417 28.5016
rfingers 7.12502
rthumb -4.68576 -1.42658
lclavicle -6.33937e-015 1.98785e-015
lhumerus -35.8873 -20.9316 101.956
lradius 42.6513
lwrist 27.0115
lhand -18.5928 60.0817
lfingers 7.12502
lthumb 7.69817 -270.078
rfemur 1.18667 6.70767 21.9037
rtibia -5.56597e-015
rfoot -3.16838 -14.7225
rtoes -17.0475
lfemur -8.12265 -20.3299 -13.1974
ltibia 18.559
lfoot -15.0916 18.7706
ltoes -28.2236
